<svg width="19" height="19" viewBox="0 0 19 19" fill="none" xmlns="http://www.w3.org/2000/svg">
<path d="M18.2325 8.7326H0.767496C0.343633 8.7326 0 9.07624 0 9.5001C0 9.924 0.343633 10.2676 0.767496 10.2676H18.2325C18.6564 10.2676 19 9.924 19 9.5001C19 9.07624 18.6564 8.7326 18.2325 8.7326Z" fill="black"/>
<path d="M1.85294 9.4999L7.85957 3.49323C8.1593 3.1935 8.1593 2.70755 7.85957 2.40782C7.55984 2.10812 7.07389 2.10812 6.77416 2.40782L0.224799 8.95718C-0.0749331 9.25691 -0.0749331 9.74285 0.224799 10.0426L6.77416 16.5919C6.92401 16.7418 7.12046 16.8168 7.31688 16.8168C7.5133 16.8168 7.70976 16.7418 7.85961 16.5919C8.15934 16.2922 8.15934 15.8063 7.85961 15.5065L1.85294 9.4999Z" fill="black"/>
</svg>
